# xmcd
#
# Track frame offsets:
#	150
#	14646
#	28705
#	43737
#	61326
#	81196
#	95689
#	112136
#	129166
#	144311
#	159544
#	173769
#	190094
#	204238
#	225693
#	242155
#	256739
#	257245
#	257735
#	258241
#	258962
#	259537
#	260040
#
# Disc length: 3473 seconds
#
# Revision: 1
# Processed by: cddbd v1.5.2PL0 Copyright (c) Steve Scherf et al.
# Submitted via: audiograbber 1.83.01
#
DISCID=420d8f17
DTITLE=Various Artist - CDX Volume 606 (October 13, 2014)
DYEAR=2014
DGENRE=Country
TTITLE0=Billy Currington - Don't It 
TTITLE1=Lady Antebellum - Freestyle [Radio Edit]
TTITLE2=Sara Evans - Put My Heart Down
TTITLE3=Carrie Underwood - Something In The Water [Edit]
TTITLE4=Eric Church - Talladega 
TTITLE5=Gloriana - Trouble [Radio Edit]
TTITLE6=Markus Fox - 22 Miles From Hell
TTITLE7=Owen Howell - Backyard Party
TTITLE8=The Stickers - Country Proud
TTITLE9=Tim Hadler - Down By The Railroad Tracks
TTITLE10=Smith N Western - Fallen Angel
TTITLE11=Joanna Mosca - He Aint You
TTITLE12=Vish - I Was Born To Love You
TTITLE13=Johnna Williamson (with Red Dirt City Limits) - Let The Freedom Bell R
TTITLE13=ing
TTITLE14=Frank Ortega - My Old Man
TTITLE15=Brandon Alan - Through The Cracks
TTITLE16=Gracia Harrison - Radio Liner - Home Town Country
TTITLE17=Gracia Harrison - Radio Liner - Kickin' Country
TTITLE18=Gracia Harrison - Radio Liner - More Of The Country You Love
TTITLE19=Gracia Harrison - Radio Liner - My New Single
TTITLE20=Gracia Harrison - Radio Liner - Super Country
TTITLE21=Gracia Harrison - Radio Liner - The Best In Country Music
TTITLE22=Gracia Harrison - Radio Liner - Today's Hot Country Music
EXTD=
EXTT0=
EXTT1=
EXTT2=
EXTT3=
EXTT4=
EXTT5=
EXTT6=
EXTT7=
EXTT8=
EXTT9=
EXTT10=
EXTT11=
EXTT12=
EXTT13=
EXTT14=
EXTT15=
EXTT16=
EXTT17=
EXTT18=
EXTT19=
EXTT20=
EXTT21=
EXTT22=
PLAYORDER=
